# xmcd
#
# Track frame offsets:
#	150
#	11584
#	26729
#	42596
#	59704
#	77346
#	91705
#	108437
#	125906
#	142455
#	158268
#	175873
#	194020
#	210518
#	227725
#	240566
#	257725
#	271836
#	287460
#
# Disc length: 4031 seconds
#
# Revision: 2
# Processed by: cddbd v1.5.2PL0 Copyright (c) Steve Scherf et al.
# Submitted via: audiograbber 1.83.01
#
DISCID=0b0fbd13
DTITLE=Various Artist - Promo Only Country Radio January 2009
DYEAR=2009
DGENRE=Country
TTITLE0=Hank III - Six Pack of Beer
TTITLE1=Taylor Swift - White Horse
TTITLE2=Rodney Atkins - It's America
TTITLE3=Keith Urban - Sweet Thing
TTITLE4=Jessica Andrews - Everything
TTITLE5=George Strait - River of Love
TTITLE6=Kellie Pickler - Best Days of Your Life
TTITLE7=Josh Gracin - Telluride
TTITLE8=Jason Aldean - She's Country
TTITLE9=Emerson Drive - Belongs to You
TTITLE10=Martina McBride - Ride
TTITLE11=Little Big Town - Good Lord Willing
TTITLE12=Austin Law - Neon Halo
TTITLE13=John Rich - Another You
TTITLE14=Desiree G. Stephens - Treat Me Like a Lady
TTITLE15=Robin and Linda Williams - Going, Going Gone
TTITLE16=Donnie Vondra - If I Didn't Love You
TTITLE17=Joan Baez - God is God
TTITLE18=Ernie Oldfield - Sad Moments
EXTD=
EXTT0=
EXTT1=
EXTT2=
EXTT3=
EXTT4=
EXTT5=
EXTT6=
EXTT7=
EXTT8=
EXTT9=
EXTT10=
EXTT11=
EXTT12=
EXTT13=
EXTT14=
EXTT15=
EXTT16=
EXTT17=
EXTT18=
PLAYORDER=
